<svg width="565" height="442" viewBox="0 0 565 442" fill="none" xmlns="http://www.w3.org/2000/svg">
<g clip-path="url(#clip0_2795_8764)">
<mask id="mask0_2795_8764" style="mask-type:luminance" maskUnits="userSpaceOnUse" x="0" y="0" width="565" height="442">
<path d="M565 0H0V442H565V0Z" fill="white"/>
</mask>
<g mask="url(#mask0_2795_8764)">
<mask id="mask1_2795_8764" style="mask-type:luminance" maskUnits="userSpaceOnUse" x="0" y="0" width="565" height="445">
<path d="M565 0H0V445H565V0Z" fill="white"/>
</mask>
<g mask="url(#mask1_2795_8764)">
<path d="M565.282 287.811C564.959 234.501 528.838 189.824 479.882 176.454C475.502 95.6638 408.481 31.7355 326.831 32.2161C260.955 32.6025 205.097 74.806 184.179 133.536C169.884 128.847 154.926 126.506 139.885 126.602C62.7226 127.063 0.548574 190.063 1.00247 267.352C1.43043 340.296 57.5125 399.847 128.686 405.923L128.214 406.536L462.151 404.572C520.745 398.438 565.636 348.067 565.282 287.811Z" fill="#436995"/>
<path d="M354.5 248.716H205.376C199.094 248.716 194 243.615 194 237.322V231.322H365.876V237.322C365.876 243.615 360.783 248.716 354.5 248.716Z" fill="#061418"/>
<path d="M297.916 248.716H262.643V263.936H297.916V248.716Z" fill="#131B1E"/>
<path d="M365.876 231.605H194V141.533C194 135.716 198.708 131 204.515 131H355.361C361.168 131 365.876 135.716 365.876 141.533V231.605Z" fill="#131B1E"/>
<path d="M359.968 138.239H200.984V225.393H359.968V138.239Z" fill="#EEF6FF"/>
<path d="M279.938 243.129C282.082 243.129 283.821 241.388 283.821 239.24C283.821 237.092 282.082 235.352 279.938 235.352C277.794 235.352 276.056 237.092 276.056 239.24C276.056 241.388 277.794 243.129 279.938 243.129Z" fill="#EEF6FF"/>
<path d="M313.006 269.03H246.912C246.912 266.217 249.189 263.936 251.998 263.936H307.92C310.729 263.936 313.006 266.217 313.006 269.03Z" fill="#090B0C"/>
<path d="M230.195 150.692C230.224 150.48 230.241 150.265 230.241 150.045C230.241 149.545 230.162 149.061 230.016 148.605C228.911 152.006 226.402 151.755 226.402 151.755L226.188 154.233C229.814 155.471 229.814 157.907 229.814 157.907C226.998 154.318 224.524 156.454 224.524 156.454C223.784 157.301 222.897 158.001 222.329 158.41L230.027 158.377C233.525 157.992 233.525 155.001 233.525 155.001C233.722 151.61 231.312 150.858 230.195 150.692Z" fill="#003262"/>
<path d="M223.566 151.263C220.942 150.707 219.918 152.437 219.918 152.437L220.921 152.972L220.046 154.83L217.544 153.434L218.482 151.64L219.734 152.295C220.197 150.879 221.433 150.125 222.859 149.961C224.352 149.79 225.81 150.701 227.258 150.418C228.392 150.197 229.303 149.298 229.938 148.377C229.219 146.46 227.297 145.089 225.037 145.089C222.644 145.089 220.629 146.628 220.021 148.724C219.98 148.723 219.938 148.721 219.897 148.721C217.058 148.721 214.757 150.892 214.757 153.57C214.757 155.983 216.625 157.983 219.071 158.356C224.61 157.606 223.566 151.263 223.566 151.263ZM225.676 147.24C226.313 147.24 226.829 147.756 226.829 148.394C226.829 149.031 226.313 149.547 225.676 149.547C225.04 149.547 224.525 149.031 224.525 148.394C224.525 147.756 225.04 147.24 225.676 147.24Z" fill="#0AADD8"/>
<path d="M230.923 145.945H229.644V147.226H230.923V145.945Z" fill="#003262"/>
<path d="M232.416 145.432H231.607V146.242H232.416V145.432Z" fill="#003262"/>
<path d="M232.416 147.24H231.607V148.05H232.416V147.24Z" fill="#0AADD8"/>
<path d="M234.97 154.372V154.354C234.97 152.62 236.336 151.2 238.215 151.2C240.095 151.2 241.443 152.603 241.443 154.337V154.354C241.443 156.088 240.077 157.508 238.198 157.508C236.319 157.508 234.97 156.106 234.97 154.372ZM240.042 154.372V154.354C240.042 153.309 239.277 152.438 238.198 152.438C237.119 152.438 236.371 153.292 236.371 154.337V154.354C236.371 155.4 237.137 156.271 238.215 156.271C239.294 156.271 240.042 155.417 240.042 154.372Z" fill="#003262"/>
<path d="M242.462 155.757V152.733H243.784V155.338C243.784 155.966 244.079 156.288 244.584 156.288C245.089 156.288 245.41 155.966 245.41 155.338V152.733H246.733V157.403H245.41V156.742C245.106 157.133 244.715 157.491 244.044 157.491C243.045 157.491 242.462 156.828 242.462 155.757Z" fill="#003262"/>
<path d="M248.134 156.079V153.867H247.577V152.734H248.134V151.54H249.456V152.734H250.552V153.867H249.456V155.862C249.456 156.167 249.586 156.315 249.882 156.315C250.126 156.315 250.344 156.254 250.535 156.149V157.212C250.256 157.378 249.935 157.482 249.491 157.482C248.682 157.482 248.134 157.16 248.134 156.079Z" fill="#003262"/>
<path d="M251.162 156.785L251.727 155.915C252.231 156.28 252.761 156.472 253.197 156.472C253.579 156.472 253.753 156.333 253.753 156.124V156.106C253.753 155.819 253.302 155.722 252.788 155.566C252.136 155.374 251.396 155.069 251.396 154.163V154.146C251.396 153.196 252.161 152.665 253.101 152.665C253.693 152.665 254.336 152.865 254.841 153.205L254.336 154.12C253.876 153.85 253.414 153.684 253.075 153.684C252.753 153.684 252.588 153.823 252.588 154.006V154.024C252.588 154.285 253.032 154.407 253.536 154.581C254.188 154.799 254.945 155.112 254.945 155.966V155.984C254.945 157.021 254.171 157.491 253.162 157.491C252.51 157.491 251.778 157.274 251.162 156.785Z" fill="#003262"/>
<path d="M256.024 156.079V153.867H255.468V152.734H256.024V151.54H257.346V152.734H258.442V153.867H257.346V155.862C257.346 156.167 257.477 156.315 257.773 156.315C258.017 156.315 258.234 156.254 258.426 156.149V157.212C258.147 157.378 257.825 157.482 257.381 157.482C256.572 157.482 256.024 157.16 256.024 156.079Z" fill="#003262"/>
<path d="M259.14 156.063V156.045C259.14 155.026 259.913 154.555 261.018 154.555C261.487 154.555 261.827 154.634 262.158 154.747V154.669C262.158 154.12 261.819 153.815 261.157 153.815C260.653 153.815 260.297 153.911 259.87 154.067L259.539 153.057C260.053 152.83 260.557 152.682 261.349 152.682C262.07 152.682 262.593 152.874 262.923 153.205C263.271 153.553 263.428 154.067 263.428 154.695V157.405H262.149V156.899C261.827 157.256 261.384 157.491 260.74 157.491C259.861 157.491 259.14 156.986 259.14 156.063ZM262.175 155.758V155.522C261.949 155.418 261.654 155.349 261.331 155.349C260.766 155.349 260.418 155.575 260.418 155.993V156.01C260.418 156.368 260.713 156.576 261.14 156.576C261.758 156.576 262.175 156.237 262.175 155.758Z" fill="#003262"/>
<path d="M264.794 153.867H264.246V152.778H264.794V152.481C264.794 151.967 264.924 151.593 265.168 151.348C265.412 151.104 265.769 150.983 266.239 150.983C266.655 150.983 266.934 151.034 267.178 151.113V152.211C266.987 152.142 266.804 152.098 266.578 152.098C266.273 152.098 266.099 152.254 266.099 152.603V152.786H267.169V153.867H266.116V157.405H264.794V153.867Z" fill="#003262"/>
<path d="M268.117 153.867H267.569V152.778H268.117V152.481C268.117 151.967 268.247 151.593 268.491 151.348C268.735 151.104 269.091 150.983 269.562 150.983C269.978 150.983 270.257 151.034 270.501 151.113V152.211C270.31 152.142 270.127 152.098 269.901 152.098C269.596 152.098 269.422 152.254 269.422 152.603V152.786H270.492V153.867H269.439V157.405H268.117V153.867Z" fill="#003262"/>
<path d="M270.901 155.096V155.078C270.901 153.745 271.849 152.647 273.206 152.647C274.763 152.647 275.476 153.858 275.476 155.182C275.476 155.287 275.469 155.41 275.46 155.531H272.214C272.345 156.132 272.762 156.446 273.354 156.446C273.798 156.446 274.119 156.306 274.486 155.967L275.242 156.637C274.807 157.178 274.181 157.509 273.336 157.509C271.937 157.509 270.901 156.525 270.901 155.096ZM274.189 154.703C274.111 154.111 273.763 153.71 273.206 153.71C272.658 153.71 272.302 154.102 272.197 154.703H274.189Z" fill="#003262"/>
<path d="M276.46 152.734H277.783V153.676C278.053 153.031 278.488 152.612 279.271 152.647V154.032H279.201C278.323 154.032 277.783 154.565 277.783 155.68V157.405H276.46V152.734Z" fill="#003262"/>
<path d="M280.219 156.663H280.793V157.404H280.219V156.663Z" fill="#003262"/>
<path d="M281.837 155.199V155.182C281.837 153.937 282.829 152.855 284.099 152.855C284.934 152.855 285.456 153.239 285.873 153.675L285.569 153.988C285.186 153.597 284.751 153.257 284.091 153.257C283.081 153.257 282.298 154.102 282.298 155.164V155.182C282.298 156.254 283.108 157.108 284.125 157.108C284.751 157.108 285.239 156.786 285.613 156.367L285.908 156.628C285.456 157.143 284.916 157.508 284.099 157.508C282.82 157.508 281.837 156.446 281.837 155.199Z" fill="#003262"/>
<path d="M286.675 155.199V155.182C286.675 153.937 287.64 152.855 288.962 152.855C290.276 152.855 291.233 153.919 291.233 155.164V155.182C291.233 156.428 290.267 157.508 288.945 157.508C287.632 157.508 286.675 156.446 286.675 155.199ZM290.772 155.199V155.182C290.772 154.111 289.972 153.257 288.945 153.257C287.892 153.257 287.135 154.119 287.135 155.164V155.182C287.135 156.254 287.936 157.108 288.962 157.108C290.015 157.108 290.772 156.246 290.772 155.199Z" fill="#003262"/>
<path d="M292.547 152.96H292.973V153.753C293.26 153.292 293.66 152.855 294.452 152.855C295.226 152.855 295.705 153.3 295.949 153.814C296.235 153.318 296.714 152.855 297.549 152.855C298.602 152.855 299.254 153.597 299.254 154.712V157.404H298.828V154.764C298.828 153.805 298.332 153.248 297.515 153.248C296.766 153.248 296.114 153.823 296.114 154.817V157.404H295.687V154.738C295.687 153.814 295.183 153.248 294.392 153.248C293.6 153.248 292.973 153.945 292.973 154.843V157.404H292.547V152.96Z" fill="#003262"/>
<path d="M350.613 220.732H274.157C273.311 220.732 272.625 220.044 272.625 219.196V166.694C272.625 165.846 273.311 165.159 274.157 165.159H350.613C351.46 165.159 352.146 165.846 352.146 166.694V219.196C352.146 220.044 351.46 220.732 350.613 220.732Z" fill="white"/>
<path d="M330.04 174.657H281.277C280.794 174.657 280.404 174.266 280.404 173.783V169.611C280.404 169.128 280.794 168.737 281.277 168.737H330.04C330.522 168.737 330.913 169.128 330.913 169.611V173.783C330.913 174.266 330.522 174.657 330.04 174.657Z" fill="#EEF6FF"/>
<path d="M313.384 183.021H281.541C281.058 183.021 280.668 182.629 280.668 182.146V177.974C280.668 177.491 281.058 177.099 281.541 177.099H313.384C313.866 177.099 314.257 177.491 314.257 177.974V182.146C314.257 182.629 313.866 183.021 313.384 183.021Z" fill="#EEF6FF"/>
<path d="M308.713 206.424H300.556C300.117 206.424 299.761 206.067 299.761 205.628V201.464C299.761 201.024 300.117 200.668 300.556 200.668H308.713C309.151 200.668 309.508 201.024 309.508 201.464V205.628C309.508 206.067 309.151 206.424 308.713 206.424Z" fill="#EEF6FF"/>
<path d="M293.998 213.927H281.895C281.041 213.927 280.35 213.234 280.35 212.379V201.5C280.35 200.644 281.041 199.951 281.895 199.951H293.998C294.852 199.951 295.543 200.644 295.543 201.5V212.379C295.543 213.234 294.852 213.927 293.998 213.927Z" fill="#EEF6FF"/>
<path d="M322.745 214.357H300.801C300.463 214.357 300.188 214.082 300.188 213.744V209.049C300.188 208.71 300.463 208.435 300.801 208.435H322.745C323.083 208.435 323.357 208.71 323.357 209.049V213.744C323.357 214.082 323.083 214.357 322.745 214.357Z" fill="#EEF6FF"/>
<path d="M306.828 188.322H296.498C296.23 188.322 296.013 188.12 296.013 187.871C296.013 187.622 296.23 187.42 296.498 187.42H306.828C307.096 187.42 307.314 187.622 307.314 187.871C307.314 188.12 307.096 188.322 306.828 188.322Z" fill="#A0CDED"/>
<path d="M293.237 188.322H280.682C280.414 188.322 280.197 188.12 280.197 187.871C280.197 187.622 280.414 187.42 280.682 187.42H293.237C293.506 187.42 293.722 187.622 293.722 187.871C293.722 188.12 293.506 188.322 293.237 188.322Z" fill="#A0CDED"/>
<path d="M322.323 194.821H310.473C310.205 194.821 309.988 194.619 309.988 194.371C309.988 194.121 310.205 193.92 310.473 193.92H322.323C322.591 193.92 322.807 194.121 322.807 194.371C322.807 194.619 322.591 194.821 322.323 194.821Z" fill="#A0CDED"/>
<path d="M306.523 194.821H286.775C286.507 194.821 286.29 194.619 286.29 194.371C286.29 194.121 286.507 193.92 286.775 193.92H306.523C306.792 193.92 307.009 194.121 307.009 194.371C307.009 194.619 306.792 194.821 306.523 194.821Z" fill="#A0CDED"/>
<path d="M233.059 242.095H208.969V256.327H233.059V242.095Z" fill="white"/>
<path d="M224.947 239.434H216.155V244.756H224.947V239.434Z" fill="#77AFD9"/>
<path d="M266.895 219.686H215.638C215.065 219.686 214.599 219.221 214.599 218.647V182.704C214.599 182.13 215.065 181.665 215.638 181.665H266.895C267.469 181.665 267.933 182.13 267.933 182.704V218.647C267.933 219.221 267.469 219.686 266.895 219.686Z" fill="white"/>
<path d="M212.627 194.11H269.501" stroke="#DDEEF7" stroke-width="0.633709" stroke-miterlimit="10"/>
<path d="M212.627 206.003H269.501" stroke="#DDEEF7" stroke-width="0.633709" stroke-miterlimit="10"/>
<path d="M223.48 191.832C225.263 191.832 226.707 190.385 226.707 188.6C226.707 186.815 225.263 185.367 223.48 185.367C221.698 185.367 220.253 186.815 220.253 188.6C220.253 190.385 221.698 191.832 223.48 191.832Z" fill="#77AFD9"/>
<path d="M223.48 176.125C225.897 176.125 227.856 174.163 227.856 171.742C227.856 169.322 225.897 167.359 223.48 167.359C221.063 167.359 219.104 169.322 219.104 171.742C219.104 174.163 221.063 176.125 223.48 176.125Z" fill="#77AFD9"/>
<path d="M226.626 200.745C227.022 199.004 225.934 197.272 224.197 196.875C222.459 196.478 220.729 197.568 220.333 199.309C219.937 201.049 221.025 202.781 222.763 203.179C224.501 203.575 226.23 202.486 226.626 200.745Z" fill="#77AFD9"/>
<path d="M223.48 215.116C225.263 215.116 226.707 213.669 226.707 211.884C226.707 210.098 225.263 208.651 223.48 208.651C221.698 208.651 220.253 210.098 220.253 211.884C220.253 213.669 221.698 215.116 223.48 215.116Z" fill="#77AFD9"/>
<path d="M228.659 187.201H257.508" stroke="#A0CDED" stroke-width="0.316854" stroke-miterlimit="10" stroke-linecap="round" stroke-linejoin="round"/>
<path d="M228.659 189.461H232.939" stroke="#A0CDED" stroke-width="0.316854" stroke-miterlimit="10" stroke-linecap="round" stroke-linejoin="round"/>
<path d="M228.659 198.748H257.508" stroke="#A0CDED" stroke-width="0.316854" stroke-miterlimit="10" stroke-linecap="round" stroke-linejoin="round"/>
<path d="M228.659 201.008H243.949" stroke="#A0CDED" stroke-width="0.316854" stroke-miterlimit="10" stroke-linecap="round" stroke-linejoin="round"/>
<path d="M228.659 210.725H234.964" stroke="#A0CDED" stroke-width="0.316854" stroke-miterlimit="10" stroke-linecap="round" stroke-linejoin="round"/>
<path d="M228.659 212.987H257.508" stroke="#A0CDED" stroke-width="0.316854" stroke-miterlimit="10" stroke-linecap="round" stroke-linejoin="round"/>
<path d="M222.186 188.94L223.101 189.565L224.775 187.634" stroke="white" stroke-width="0.394502" stroke-miterlimit="10" stroke-linecap="round" stroke-linejoin="round"/>
<path d="M222.186 200.339L223.101 200.963L224.775 199.033" stroke="white" stroke-width="0.394502" stroke-miterlimit="10" stroke-linecap="round" stroke-linejoin="round"/>
<path d="M222.186 212.225L223.101 212.849L224.775 210.918" stroke="white" stroke-width="0.394502" stroke-miterlimit="10" stroke-linecap="round" stroke-linejoin="round"/>
<path d="M232.197 171.011H261.045" stroke="#A0CDED" stroke-width="0.316854" stroke-miterlimit="10" stroke-linecap="round" stroke-linejoin="round"/>
<path d="M232.197 173.272H250.167" stroke="#A0CDED" stroke-width="0.316854" stroke-miterlimit="10" stroke-linecap="round" stroke-linejoin="round"/>
<path d="M161.841 153.205C165.253 149.787 165.253 144.245 161.841 140.827C158.429 137.409 152.896 137.409 149.483 140.827C146.071 144.245 146.071 149.787 149.483 153.205C152.896 156.624 158.429 156.624 161.841 153.205Z" fill="#F1F8FF"/>
<path d="M76.0233 190.861C75.5601 190.861 75.0968 190.68 74.7493 190.321C74.0656 189.616 74.083 188.491 74.787 187.807L130.321 133.83C130.62 133.54 131.009 133.364 131.424 133.332L142.321 132.513C143.308 132.45 144.151 133.174 144.225 134.154C144.298 135.134 143.564 135.987 142.587 136.061L132.332 136.832L77.2597 190.359C76.9153 190.694 76.4693 190.861 76.0233 190.861Z" fill="#DDB238"/>
<path d="M100.973 263.567C100.207 263.567 99.5011 263.068 99.2709 262.295L77.7186 189.589C77.4403 188.647 77.9756 187.657 78.9154 187.377C79.853 187.098 80.8435 187.633 81.1239 188.576L102.677 261.282C102.955 262.224 102.42 263.214 101.48 263.494C101.311 263.544 101.14 263.567 100.973 263.567Z" fill="#DDB238"/>
<path d="M154.728 134.998L144.683 140.807L135.983 125.714C134.381 122.936 135.332 119.384 138.106 117.78C140.88 116.175 144.427 117.127 146.028 119.906L154.728 134.998Z" fill="#DDB238"/>
<path d="M80.3826 269.223C80.3826 269.223 86.0491 260.369 101.235 260.369C116.422 260.369 121.635 269.223 121.635 269.223H80.3826Z" fill="#DDB238"/>
<path d="M83.6076 185.207H75.5271V192.837H82.6919C82.9869 192.909 83.2905 192.958 83.6076 192.958C85.7444 192.958 87.4769 191.223 87.4769 189.083C87.4769 186.942 85.7444 185.207 83.6076 185.207Z" fill="#DDB238"/>
<path d="M79.7381 189.082C79.7381 191.223 78.006 192.958 75.8692 192.958C73.7323 192.958 72 191.223 72 189.082C72 186.942 73.7323 185.207 75.8692 185.207C78.006 185.207 79.7381 186.942 79.7381 189.082Z" fill="#DDB238"/>
<path d="M155.138 128.333C144.59 128.333 136.041 136.897 136.041 147.462C136.041 150.737 136.865 153.817 138.313 156.512L171.962 138.411C168.739 132.412 162.415 128.333 155.138 128.333Z" fill="#DDB238"/>
<path opacity="0.4" d="M137.94 157.254L135.111 270L333.194 269.404L171.37 139.125L137.94 157.254Z" fill="white" fill-opacity="0.4"/>
<path d="M97.7101 287L72.7998 405.745L78.2661 406.896L103.176 288.151L97.7101 287Z" fill="#1A2022"/>
<path d="M109.076 287.271L103.61 288.42L128.508 407.168L133.974 406.019L109.076 287.271Z" fill="#1A2022"/>
<path d="M128.564 388.52H78.7412V394.114H128.564V388.52Z" fill="#1A2022"/>
<path d="M136.668 284.055H71.6538V291.638H136.668V284.055Z" fill="#0F2A54"/>
<path d="M450.948 287.271L426.044 406.018L431.511 407.168L456.415 288.422L450.948 287.271Z" fill="#1A2022"/>
<path d="M462.318 287.271L456.851 288.421L481.749 407.168L487.217 406.019L462.318 287.271Z" fill="#1A2022"/>
<path d="M481.806 388.52H431.984V394.114H481.806V388.52Z" fill="#1A2022"/>
<path d="M489.91 284.055H424.896V291.638H489.91V284.055Z" fill="#0F2A54"/>
<path d="M508.824 269.372H281.403H53.981V284.055H508.824V269.372Z" fill="#0F2A54"/>
<path d="M61 406H506" stroke="#0F2A54" stroke-width="1.93698" stroke-miterlimit="10"/>
<path d="M476.996 269.445H439.738C438.844 269.445 438.12 268.719 438.12 267.824C438.12 266.928 438.844 266.202 439.738 266.202H476.996C477.89 266.202 478.615 266.928 478.615 267.824C478.615 268.719 477.89 269.445 476.996 269.445Z" fill="#C0C7D4"/>
<path d="M438.073 223.822L436.698 223.765C436.715 223.361 437.17 213.77 443.093 208.039L444.049 209.029C438.517 214.381 438.076 223.727 438.073 223.822Z" fill="#94D1FF"/>
<path d="M478.185 223.822L479.559 223.765C479.543 223.361 479.088 213.77 473.164 208.039L472.209 209.029C477.741 214.381 478.182 223.727 478.185 223.822Z" fill="#94D1FF"/>
<path d="M479.711 220.47C481.536 220.106 483.263 221.598 483.329 223.46C483.331 223.518 483.332 223.575 483.332 223.633V226.433C483.332 226.433 486.037 228.536 486.037 231.596C486.037 234.656 484.163 238.786 481.795 239.475C481.668 239.757 481.541 239.991 481.452 240.186C481.193 240.758 480.673 241.086 480.054 240.982L479.591 240.89V220.534C479.591 220.507 479.634 220.485 479.711 220.47Z" fill="#94D1FF"/>
<path d="M454.322 251.101C453.933 251.092 444.709 250.83 436.553 247.493C433.025 246.05 430.505 242.984 429.265 238.626C428.342 235.387 428.446 232.602 428.451 232.485L429.825 232.542C429.823 232.568 429.727 235.254 430.596 238.284C431.736 242.257 433.915 244.927 437.073 246.219C444.989 249.457 454.263 249.722 454.356 249.725L454.322 251.101Z" fill="#94D1FF"/>
<path d="M433.452 232.769C433.452 233.735 432.669 234.519 431.705 234.519H428.963C427.998 234.519 427.216 233.735 427.216 232.769V232.521C427.216 231.555 427.998 230.771 428.963 230.771H431.705C432.669 230.771 433.452 231.555 433.452 232.521V232.769Z" fill="#94D1FF"/>
<path d="M436.444 220.662C434.631 220.511 433.009 221.964 432.984 223.788C432.984 223.813 432.984 223.838 432.984 223.863V226.662C432.984 226.662 430.221 228.765 430.221 231.825C430.221 234.885 432.066 239.015 434.433 239.704C434.561 239.986 434.674 240.221 434.763 240.416C435.022 240.988 435.592 241.315 436.211 241.211L436.725 241.119L436.704 220.743C436.704 220.7 436.605 220.675 436.444 220.662Z" fill="#94D1FF"/>
<path d="M459.877 266.63H457.209V204.631C457.209 203.893 457.806 203.295 458.543 203.295C459.28 203.295 459.877 203.893 459.877 204.631V266.63Z" fill="#C0C7D4"/>
<path d="M465.135 204.963H451.82C451.5 204.963 451.242 204.586 451.242 204.12C451.242 203.654 451.5 203.277 451.82 203.277H465.135C465.455 203.277 465.714 203.654 465.714 204.12C465.714 204.586 465.455 204.963 465.135 204.963Z" fill="#C0C7D4"/>
<path d="M474.919 210.878C474.435 211.415 473.618 211.292 473.064 210.666C464.74 201.236 451.727 201.236 443.403 210.666C442.848 211.292 442.031 211.415 441.547 210.878C441.064 210.344 441.152 209.281 441.779 208.571C451.014 198.11 465.452 198.11 474.687 208.571C475.314 209.281 475.403 210.344 474.919 210.878Z" fill="#263237"/>
<path d="M479.591 221.848C479.591 220.454 478.463 219.324 477.071 219.324H476.967C475.576 219.324 474.447 220.454 474.447 221.848V239.283C474.447 240.677 475.576 241.807 476.967 241.807H477.071C478.463 241.807 479.591 240.677 479.591 239.283V221.848Z" fill="#263237"/>
<path d="M462.913 250.395C462.913 251.371 462.122 252.162 461.148 252.162H455.636C454.661 252.162 453.871 251.371 453.871 250.395V250.181C453.871 249.206 454.661 248.415 455.636 248.415H461.148C462.122 248.415 462.913 249.206 462.913 250.181V250.395Z" fill="#263237"/>
<path d="M441.869 239.595C441.869 240.99 440.741 242.12 439.349 242.12H439.245C437.853 242.12 436.725 240.99 436.725 239.595V222.161C436.725 220.766 437.853 219.636 439.245 219.636H439.349C440.741 219.636 441.869 220.766 441.869 222.161V239.595Z" fill="#263237"/>
<path fill-rule="evenodd" clip-rule="evenodd" d="M331.893 435.475C328.95 435.475 326.549 433.072 326.549 430.123C326.549 427.176 328.95 424.771 331.893 424.771C334.836 424.771 337.236 427.176 337.236 430.123C337.236 433.072 334.836 435.475 331.893 435.475Z" fill="#263237"/>
<path fill-rule="evenodd" clip-rule="evenodd" d="M276.35 435.475C273.406 435.475 271.006 433.072 271.006 430.123C271.006 427.176 273.406 424.771 276.35 424.771C279.293 424.771 281.693 427.176 281.693 430.123C281.693 433.072 279.293 435.475 276.35 435.475Z" fill="#131B1E"/>
<path d="M333.585 379.847H324.148V416.494H333.585V379.847Z" fill="#263237"/>
<path fill-rule="evenodd" clip-rule="evenodd" d="M333.098 411.952H324.635C323.457 411.952 322.501 412.908 322.501 414.089V417.953L279.36 420.464C276.223 420.647 273.772 423.249 273.772 426.398H322.501H326.293H331.44H383.961C383.961 423.25 381.51 420.648 378.373 420.465L335.232 417.953V414.089C335.232 412.908 334.276 411.952 333.098 411.952Z" fill="#131B1E"/>
<path fill-rule="evenodd" clip-rule="evenodd" d="M334.382 393.38H323.351C322.185 393.38 321.24 392.432 321.24 391.266V378.933H336.493V391.266C336.493 392.432 335.548 393.38 334.382 393.38Z" fill="#131B1E"/>
<path fill-rule="evenodd" clip-rule="evenodd" d="M337.849 381.729H319.883C318.549 381.729 317.468 380.645 317.468 379.309V361.867H340.265V379.309C340.265 380.645 339.184 381.729 337.849 381.729Z" fill="#131B1E"/>
<path fill-rule="evenodd" clip-rule="evenodd" d="M349.134 361.867H308.544C302.854 361.867 298.241 357.246 298.241 351.547H359.436C359.436 357.246 354.824 361.867 349.134 361.867Z" fill="#131B1E"/>
<path d="M385.468 430.123C385.468 433.071 383.068 435.475 380.125 435.475C377.182 435.475 374.781 433.071 374.781 430.123H385.468Z" fill="#131B1E"/>
<path d="M380.125 424.771C383.068 424.771 385.468 427.175 385.468 430.123H374.781C374.781 427.175 377.182 424.771 380.125 424.771Z" fill="#263237"/>
<path d="M331.893 424.771C334.836 424.771 337.236 427.175 337.236 430.123H326.549C326.549 427.175 328.95 424.771 331.893 424.771Z" fill="#131B1E"/>
<path d="M276.35 424.771C279.293 424.771 281.693 427.175 281.693 430.123H271.006C271.006 427.175 273.406 424.771 276.35 424.771Z" fill="#263237"/>
<path d="M336.493 380.605H338.015C339.258 380.605 340.265 379.595 340.265 378.349V360.742H336.493V380.605Z" fill="#263237"/>
<path d="M332.719 392.256H334.241C335.484 392.256 336.493 391.246 336.493 390V380.605H332.719V392.256Z" fill="#263237"/>
<path d="M333.142 194H330.315C327.401 194 324.607 195.168 322.557 197.242C321.096 198.719 320.086 200.582 319.646 202.613L298.88 298.226L302.721 328.997H267.256C261.039 328.997 256 334.045 256 340.272C256 346.499 261.039 351.546 267.256 351.546H320.164L333.142 194Z" fill="#A0CDED"/>
<path d="M395.017 351.546H320.164C317.648 351.546 315.488 349.752 315.024 347.275L307.687 306.137C306.966 302.287 307.009 298.331 307.813 294.496L328.025 198.161C328.534 195.736 330.669 194 333.143 194H395.456C398.533 194 400.946 196.649 400.662 199.719L392.023 293.468C391.982 293.915 391.998 294.366 392.072 294.81L400.175 345.448C400.706 348.64 398.248 351.546 395.017 351.546Z" fill="#77AFD9"/>
<path d="M494.549 67.792H460.065C456.716 67.792 454 65.0726 454 61.7176V29.6054C454 27.0618 456.059 25 458.598 25H494.549C497.088 25 499.147 27.0618 499.147 29.6054V63.1868C499.147 65.7304 497.088 67.792 494.549 67.792Z" fill="#77AFD9"/>
<path d="M487.09 38.1304L477.254 32.2696C476.982 32.1067 476.641 32.1067 476.368 32.2696L466.533 38.1304C466.269 38.2871 466.108 38.5708 466.108 38.8772V42.2229C466.108 49.2694 470.173 55.7054 476.498 58.1583C476.699 58.2364 476.922 58.2365 477.124 58.1583C483.434 55.7116 487.514 49.2895 487.514 42.2229V38.8772C487.514 38.5708 487.353 38.2871 487.09 38.1304ZM481.097 43.2295L475.66 48.6759C475.321 49.0153 474.772 49.0153 474.433 48.6759L472.525 46.7646C472.185 46.4252 472.185 45.875 472.525 45.5356C472.864 45.1963 473.413 45.1963 473.751 45.5356L475.046 46.8325L479.87 42.0007C480.21 41.6613 480.759 41.6613 481.097 42.0007C481.436 42.34 481.436 42.8902 481.097 43.2295Z" fill="white"/>
<path d="M487.381 147.671H452.189C448.77 147.671 446 144.895 446 141.471V108.7C446 106.104 448.101 104 450.692 104H487.381C489.972 104 492.072 106.104 492.072 108.7V142.971C492.072 145.567 489.972 147.671 487.381 147.671Z" fill="#FBFDFF"/>
<path d="M475.219 128.578C475.361 127.481 475.361 126.384 475.361 125.287C475.361 124.19 475.306 123.094 475.219 121.997H481.461C482.089 124.146 482.089 126.429 481.461 128.578H475.219ZM472.765 119.803C472.076 115.514 470.707 113.221 469.886 113.221C469.064 113.221 467.695 115.514 467.005 119.803H472.765ZM467.005 130.772C467.684 135.061 469.064 137.354 469.886 137.354C470.707 137.354 472.076 135.061 472.765 130.772H467.005ZM473.029 121.997H466.743C466.655 123.017 466.6 124.102 466.6 125.287C466.6 126.472 466.655 127.558 466.743 128.578H473.029C473.116 127.558 473.171 126.472 473.171 125.287C473.171 124.102 473.171 123.017 473.029 121.997ZM464.41 125.287C464.41 124.19 464.41 123.094 464.553 121.997H458.31C457.682 124.146 457.682 126.429 458.31 128.578H464.553C464.465 127.481 464.41 126.384 464.41 125.287ZM464.804 130.772H459.164C460.691 133.751 463.384 135.96 466.6 136.871C465.683 134.946 465.076 132.888 464.804 130.772ZM474.967 130.772C474.694 132.888 474.089 134.946 473.171 136.871C476.387 135.96 479.08 133.751 480.607 130.772H474.967ZM474.967 119.803H480.607C479.08 116.824 476.387 114.615 473.171 113.704C474.089 115.628 474.694 117.687 474.967 119.803ZM464.804 119.803C465.076 117.687 465.683 115.628 466.6 113.704C463.384 114.615 460.691 116.824 459.164 119.803H464.804Z" fill="#77AFD9"/>
<path d="M383.851 99.1429H414.139C415.161 99.1429 415.99 98.3129 415.99 97.2895V72.8535C415.99 71.8299 415.161 71 414.139 71H383.851C382.829 71 382 71.8299 382 72.8535V97.2895C382 98.3129 382.829 99.1429 383.851 99.1429Z" fill="#FBFDFF"/>
<path d="M405.738 83.1191L404.62 82.9229C404.489 82.4353 404.295 81.9665 404.043 81.5279L404.694 80.5979C404.934 80.2555 404.893 79.7904 404.598 79.4952L403.929 78.8246C403.63 78.535 403.165 78.502 402.829 78.7463L401.899 79.399C401.462 79.1462 400.994 78.9519 400.506 78.8208L400.314 77.6763C400.244 77.2699 399.896 76.9705 399.485 76.9629H398.52C398.101 76.962 397.744 77.2634 397.672 77.6763L397.477 78.7925C396.989 78.9236 396.521 79.1179 396.084 79.3707L395.158 78.7463C394.817 78.5067 394.353 78.5472 394.058 78.8425L393.389 79.5131C393.094 79.8084 393.053 80.2734 393.293 80.6148L393.944 81.5458C393.692 81.9835 393.498 82.4523 393.367 82.9409L392.252 83.1371C391.84 83.2078 391.539 83.5672 391.54 83.986V84.9349C391.539 85.3537 391.84 85.7121 392.252 85.7838L393.367 85.98C393.498 86.4676 393.692 86.9364 393.944 87.3741L393.293 88.3051C393.053 88.6475 393.094 89.1125 393.389 89.4077L394.058 90.0783C394.353 90.3736 394.817 90.4141 395.158 90.1746L396.087 89.5218C396.524 89.7737 396.993 89.968 397.48 90.0991L397.676 91.2159C397.747 91.629 398.105 91.9299 398.523 91.929H399.485C399.903 91.9299 400.261 91.629 400.332 91.2159L400.528 90.0991C401.016 89.968 401.484 89.7737 401.92 89.5218L402.829 90.1595C403.17 90.4 403.634 90.3594 403.929 90.0633L404.598 89.3926C404.893 89.0983 404.934 88.6333 404.694 88.2909L404.043 87.3533C404.295 86.9147 404.489 86.4459 404.62 85.9583L405.738 85.7621C406.15 85.6904 406.451 85.332 406.45 84.9132V83.9643C406.449 83.5464 406.149 83.1899 405.738 83.1191ZM398.994 86.9996C397.581 86.9996 396.436 85.8536 396.436 84.4387C396.436 83.0248 397.581 81.8778 398.994 81.8778C400.406 81.8778 401.55 83.0248 401.55 84.4387C401.55 84.4434 401.55 84.4481 401.55 84.4529C401.542 85.8621 400.4 86.9996 398.994 86.9996Z" fill="#77AFD9"/>
</g>
</g>
</g>
<defs>
<clipPath id="clip0_2795_8764">
<rect width="565" height="442" fill="white"/>
</clipPath>
</defs>
</svg>
